<svg version="1.1" xmlns="http://www.w3.org/2000/svg" viewBox="0 0 824.7632543509826 347.51875" width="824.7632543509826" height="347.51875">
  <!-- svg-source:excalidraw -->
  
  <defs>
    <style class="style-fonts">
      @font-face {
        font-family: "Virgil";
        src: url("https://excalidraw.com/Virgil.woff2");
      }
      @font-face {
        font-family: "Cascadia";
        src: url("https://excalidraw.com/Cascadia.woff2");
      }
      @font-face {
        font-family: "Assistant";
        src: url("https://excalidraw.com/Assistant-Regular.woff2");
      }
    </style>
    
  </defs>
  <rect x="0" y="0" width="824.7632543509826" height="347.51875" fill="#ffffff"></rect><g stroke-linecap="round" transform="translate(172.7905981009826 10) rotate(0 320.986328125 14.599999999999994)"><path d="M7.3 0 C216.49 3.8, 425.92 3.46, 634.67 0 C637.39 -1.83, 642.12 3.8, 641.97 7.3 C641.55 8.45, 640.57 14.69, 641.97 21.9 C638.81 25.24, 637.15 27.29, 634.67 29.2 C384.28 31.33, 136.12 29.88, 7.3 29.2 C4.11 32.22, 0.06 29.71, 0 21.9 C0.61 16.5, -0.81 13.16, 0 7.3 C2.41 1.09, 5.34 1.69, 7.3 0" stroke="none" stroke-width="0" fill="#ffd43b"></path><path d="M7.3 0 C160.42 -0.26, 314.45 -0.32, 634.67 0 M7.3 0 C226.98 2.49, 446.19 2.19, 634.67 0 M634.67 0 C640.68 -1.21, 642.53 1.45, 641.97 7.3 M634.67 0 C639.32 0.3, 639.93 3.58, 641.97 7.3 M641.97 7.3 C641.8 10.89, 641.64 16.14, 641.97 21.9 M641.97 7.3 C642.26 10.91, 642.31 13.23, 641.97 21.9 M641.97 21.9 C643.82 25.34, 640.87 29.32, 634.67 29.2 M641.97 21.9 C641.02 27.38, 639.72 27.06, 634.67 29.2 M634.67 29.2 C443.86 30.95, 254.18 30.4, 7.3 29.2 M634.67 29.2 C440.53 29.78, 246.98 29.57, 7.3 29.2 M7.3 29.2 C2.06 28.82, 1.93 28.31, 0 21.9 M7.3 29.2 C4.2 27.94, -0.04 26.24, 0 21.9 M0 21.9 C-0.06 16.66, 0.32 10.37, 0 7.3 M0 21.9 C-0.43 18.34, -0.2 15.42, 0 7.3 M0 7.3 C1.26 0.96, 4.14 0.4, 7.3 0 M0 7.3 C1.39 4.18, 1.71 -1.21, 7.3 0" stroke="#1e1e1e" stroke-width="2" fill="none"></path></g><g transform="translate(428.1519262259826 15) rotate(0 65.625 9.599999999999994)"><text x="65.625" y="0" font-family="Cascadia, Segoe UI Emoji" font-size="16px" fill="#1e1e1e" text-anchor="middle" style="white-space: pre;" direction="ltr" dominant-baseline="text-before-edge">bioconda-utils</text></g><g stroke-linecap="round" transform="translate(362.3999731009827 50.107421875) rotate(0 223.15820312499994 14.599999999999994)"><path d="M7.3 0 C146.18 -1.12, 281.73 2.32, 439.02 0 C442 1.2, 444.2 1.4, 446.32 7.3 C444.34 12.63, 445.25 12.37, 446.32 21.9 C447.69 24.04, 443.28 29.44, 439.02 29.2 C296.12 32.88, 150.12 33.53, 7.3 29.2 C4 29.31, -1.12 25.42, 0 21.9 C-1.66 14.42, -0.52 11.58, 0 7.3 C-2.58 3.28, 1.67 1.66, 7.3 0" stroke="none" stroke-width="0" fill="#ffec99"></path><path d="M7.3 0 C119.54 0.45, 230.03 0.81, 439.02 0 M7.3 0 C164.27 1.27, 320.77 1.26, 439.02 0 M439.02 0 C444.81 1.87, 448 3.08, 446.32 7.3 M439.02 0 C443.58 -0.5, 447.51 3.97, 446.32 7.3 M446.32 7.3 C445.57 11.68, 447.85 13.96, 446.32 21.9 M446.32 7.3 C446.13 11.62, 446.19 16.75, 446.32 21.9 M446.32 21.9 C446.58 27.54, 442.94 29.43, 439.02 29.2 M446.32 21.9 C447.18 27.5, 443.24 30.12, 439.02 29.2 M439.02 29.2 C310.09 31.33, 179.23 30.85, 7.3 29.2 M439.02 29.2 C279.73 27.15, 119.83 26.8, 7.3 29.2 M7.3 29.2 C0.53 27.88, -1.68 25.93, 0 21.9 M7.3 29.2 C1.5 27.71, -1.58 26.16, 0 21.9 M0 21.9 C1 17.63, 1.46 14.24, 0 7.3 M0 21.9 C-0.26 16.36, -0.26 12.56, 0 7.3 M0 7.3 C-0.29 2.5, 1.51 0.11, 7.3 0 M0 7.3 C-0.56 3.62, 3 1.93, 7.3 0" stroke="#1e1e1e" stroke-width="2" fill="none"></path></g><g transform="translate(529.3081762259826 55.107421875) rotate(0 56.25 9.599999999999994)"><text x="56.25" y="0" font-family="Cascadia, Segoe UI Emoji" font-size="16px" fill="#1e1e1e" text-anchor="middle" style="white-space: pre;" direction="ltr" dominant-baseline="text-before-edge">mulled-build</text></g><g stroke-linecap="round" transform="translate(590.9234106009826 87.71171874999999) rotate(0 108.380859375 14.600000000000023)"><path d="M7.3 0 C74.23 4.73, 140.52 1.23, 209.46 0 C213.04 2.42, 215.69 3.15, 216.76 7.3 C215.17 8.76, 214.66 15.07, 216.76 21.9 C216.55 29.93, 215.18 28.92, 209.46 29.2 C134.27 32.51, 65.51 30.71, 7.3 29.2 C5.62 26.71, -2.57 26.25, 0 21.9 C-1.07 18.78, 1.58 17.39, 0 7.3 C3.01 -0.43, 5.84 1.54, 7.3 0" stroke="none" stroke-width="0" fill="#fff9db"></path><path d="M7.3 0 C54.92 1.11, 103.02 1.4, 209.46 0 M7.3 0 C81.08 -0.73, 153.43 -0.81, 209.46 0 M209.46 0 C212.58 0.87, 215.81 3.19, 216.76 7.3 M209.46 0 C216.35 -0.59, 215.85 0.52, 216.76 7.3 M216.76 7.3 C217.93 10.91, 216.6 14.74, 216.76 21.9 M216.76 7.3 C216.95 11.75, 216.81 14.5, 216.76 21.9 M216.76 21.9 C215.87 25.86, 213.63 29.17, 209.46 29.2 M216.76 21.9 C218.45 26.62, 214.29 30.1, 209.46 29.2 M209.46 29.2 C149.41 31.51, 88.73 28.94, 7.3 29.2 M209.46 29.2 C165.42 29.57, 121.08 29.13, 7.3 29.2 M7.3 29.2 C1.94 28.76, 1.16 27.84, 0 21.9 M7.3 29.2 C2.55 31.45, -0.11 26.95, 0 21.9 M0 21.9 C1.41 17.98, 1.45 13.52, 0 7.3 M0 21.9 C0.52 18.77, 0.6 16.25, 0 7.3 M0 7.3 C1.81 3.45, 2.08 0.62, 7.3 0 M0 7.3 C-0.09 0.7, 3.7 2.23, 7.3 0" stroke="#1e1e1e" stroke-width="2" fill="none"></path></g><g transform="translate(657.1167699759826 92.71171874999999) rotate(0 42.1875 9.600000000000023)"><text x="42.1875" y="0" font-family="Cascadia, Segoe UI Emoji" font-size="16px" fill="#1e1e1e" text-anchor="middle" style="white-space: pre;" direction="ltr" dominant-baseline="text-before-edge">involucro</text></g><g stroke-linecap="round"><g transform="translate(10.065988725982606 256.6140625) rotate(0 383.5501428942196 0.2850690942630649)"><path d="M0.91 -0.06 C128.93 -0.14, 639.81 0.18, 767.17 0.11 M-0.07 -1.14 C127.95 -1.05, 638.82 1.41, 766.72 1.71" stroke="#1e1e1e" stroke-width="2" fill="none"></path></g></g><mask></mask><g transform="translate(135.8863012259826 318.31874999999997) rotate(0 75 9.600000000000023)"><text x="0" y="0" font-family="Cascadia, Segoe UI Emoji" font-size="16px" fill="#1e1e1e" text-anchor="start" style="white-space: pre;" direction="ltr" dominant-baseline="text-before-edge">recipes/pkgname/</text></g><g transform="translate(327.3511449759826 318.29921874999997) rotate(0 117.1875 9.600000000000023)"><text x="0" y="0" font-family="Cascadia, Segoe UI Emoji" font-size="16px" fill="#1e1e1e" text-anchor="start" style="white-space: pre;" direction="ltr" dominant-baseline="text-before-edge">conda-bld/pkgname.tar.bz2</text></g><g stroke-linecap="round"><g transform="translate(181.15874776480734 306.86953124999997) rotate(0 8.98510049172205 -25.085081877849632)"><path d="M-0.99 0.47 C2.06 -7.78, 15.63 -40.78, 18.96 -49.11 M0.69 -0.33 C3.49 -8.92, 14.9 -42.11, 17.8 -50.64" stroke="#1e1e1e" stroke-width="2" fill="none"></path></g><g transform="translate(181.15874776480734 306.86953124999997) rotate(0 8.98510049172205 -25.085081877849632)"><path d="M18.3 -25.64 C18.82 -35.15, 19.76 -43.88, 17.8 -50.64 M18.3 -25.64 C17.64 -34.23, 18.2 -44.43, 17.8 -50.64" stroke="#1e1e1e" stroke-width="2" fill="none"></path></g><g transform="translate(181.15874776480734 306.86953124999997) rotate(0 8.98510049172205 -25.085081877849632)"><path d="M2.11 -31.17 C8.36 -38.59, 15.01 -45.38, 17.8 -50.64 M2.11 -31.17 C7.23 -37.73, 13.62 -45.93, 17.8 -50.64" stroke="#1e1e1e" stroke-width="2" fill="none"></path></g></g><mask></mask><g stroke-linecap="round"><g transform="translate(361.60770439202196 250.78746995706678) rotate(0 16.241189966809145 29.980914284807568)"><path d="M-0.17 0.91 C4.99 10.72, 26.52 49.91, 31.99 59.62 M-1.72 0.35 C3.73 9.75, 28.63 47.85, 34.2 57.89" stroke="#1e1e1e" stroke-width="2" fill="none"></path></g><g transform="translate(361.60770439202196 250.78746995706678) rotate(0 16.241189966809145 29.980914284807568)"><path d="M14.68 42.28 C23.78 46.71, 31.01 53.79, 34.2 57.89 M14.68 42.28 C21.96 47.22, 26.57 53.01, 34.2 57.89" stroke="#1e1e1e" stroke-width="2" fill="none"></path></g><g transform="translate(361.60770439202196 250.78746995706678) rotate(0 16.241189966809145 29.980914284807568)"><path d="M29.28 33.38 C32.84 41.2, 34.48 51.69, 34.2 57.89 M29.28 33.38 C31.78 41.17, 31.63 49.85, 34.2 57.89" stroke="#1e1e1e" stroke-width="2" fill="none"></path></g></g><mask></mask><g stroke-linecap="round"><g transform="translate(435.8678363579072 309.86562499999997) rotate(0 17.200704021272884 -41.592000035687875)"><path d="M-0.89 -1.19 C4.64 -15.17, 27.1 -70.09, 32.97 -83.99 M0.84 0.81 C6.77 -12.97, 29.79 -68.39, 35.3 -82.46" stroke="#1e1e1e" stroke-width="2" fill="none"></path></g><g transform="translate(435.8678363579072 309.86562499999997) rotate(0 17.200704021272884 -41.592000035687875)"><path d="M34.39 -57.47 C32.69 -65.75, 34.91 -70.54, 35.3 -82.46 M34.39 -57.47 C35.29 -64.67, 34.28 -69.31, 35.3 -82.46" stroke="#1e1e1e" stroke-width="2" fill="none"></path></g><g transform="translate(435.8678363579072 309.86562499999997) rotate(0 17.200704021272884 -41.592000035687875)"><path d="M18.55 -63.9 C21.32 -70.24, 28.01 -73.22, 35.3 -82.46 M18.55 -63.9 C23.35 -69.42, 26.29 -72.46, 35.3 -82.46" stroke="#1e1e1e" stroke-width="2" fill="none"></path></g></g><mask></mask><g stroke-linecap="round" transform="translate(673.2222387259826 137.4734375) rotate(0 70.0390625 46.998046875)"><path d="M23.5 0 C59.23 -0.94, 95.32 1.58, 116.58 0 M23.5 0 C44.57 -0.49, 67.83 0.4, 116.58 0 M116.58 0 C131.7 1.1, 141.29 8.89, 140.08 23.5 M116.58 0 C130.65 -1.35, 138.2 9.58, 140.08 23.5 M140.08 23.5 C140.91 33.66, 139.8 47.44, 140.08 70.5 M140.08 23.5 C138.7 40.75, 139.14 59.28, 140.08 70.5 M140.08 70.5 C140.02 87.12, 133.75 92.69, 116.58 94 M140.08 70.5 C141.02 86.49, 133.16 96.13, 116.58 94 M116.58 94 C84.35 95.54, 48.67 92.35, 23.5 94 M116.58 94 C89.12 93.16, 61.71 93.03, 23.5 94 M23.5 94 C8 95.81, -0.14 86.84, 0 70.5 M23.5 94 C5.79 92.87, 0.09 85.37, 0 70.5 M0 70.5 C-0.95 60.71, 1.18 50.99, 0 23.5 M0 70.5 C-0.18 56.99, 0.25 43.1, 0 23.5 M0 23.5 C-0.68 8.06, 9.16 -0.83, 23.5 0 M0 23.5 C-1.94 6.99, 8.61 0.67, 23.5 0" stroke="#1e1e1e" stroke-width="2" fill="none"></path></g><g transform="translate(702.1236059134826 142.4734375) rotate(0 41.1376953125 23)"><text x="41.1376953125" y="0" font-family="Helvetica, Segoe UI Emoji" font-size="20px" fill="#1e1e1e" text-anchor="middle" style="white-space: pre;" direction="ltr" dominant-baseline="text-before-edge">base </text><text x="41.1376953125" y="23" font-family="Helvetica, Segoe UI Emoji" font-size="20px" fill="#1e1e1e" text-anchor="middle" style="white-space: pre;" direction="ltr" dominant-baseline="text-before-edge">container</text></g><g stroke-linecap="round" transform="translate(680.7847387259826 193.2703125) rotate(0 64.78515625 14.600000000000023)"><path d="M7.3 0 C32.26 0.11, 60.89 -2.12, 122.27 0 M7.3 0 C41.43 -0.46, 76.7 -0.48, 122.27 0 M122.27 0 C125.75 -1.18, 127.94 3.95, 129.57 7.3 M122.27 0 C126.05 0.04, 127.7 3.38, 129.57 7.3 M129.57 7.3 C130.82 9.07, 128.77 12.16, 129.57 21.9 M129.57 7.3 C129.48 10.67, 130.05 12.85, 129.57 21.9 M129.57 21.9 C130.39 27.05, 127.93 31.06, 122.27 29.2 M129.57 21.9 C131.07 25.89, 127.57 31.23, 122.27 29.2 M122.27 29.2 C79.85 26.55, 35.65 28.68, 7.3 29.2 M122.27 29.2 C87.48 30, 52.46 29.43, 7.3 29.2 M7.3 29.2 C0.66 28.22, 0.08 26.07, 0 21.9 M7.3 29.2 C0.43 31.04, 0.94 26.11, 0 21.9 M0 21.9 C-0.23 16.25, -0.85 12.03, 0 7.3 M0 21.9 C-0.23 17.28, 0.5 12.19, 0 7.3 M0 7.3 C-1.69 1.7, 3.11 0.58, 7.3 0 M0 7.3 C-0.09 3.3, 4.53 0.93, 7.3 0" stroke="#1e1e1e" stroke-width="2" fill="none"></path></g><g transform="translate(698.6948949759826 198.2703125) rotate(0 46.875 9.600000000000023)"><text x="46.875" y="0" font-family="Cascadia, Segoe UI Emoji" font-size="16px" fill="#1e1e1e" text-anchor="middle" style="white-space: pre;" direction="ltr" dominant-baseline="text-before-edge">/usr/local</text></g><g stroke-linecap="round"><g transform="translate(554.9804250820685 213.77882827184777) rotate(0 57.96308842048256 0.25675588445386666)"><path d="M-0.13 -1.1 C19.52 -1.12, 97.89 -0.29, 117.58 0.05 M-1.65 0.93 C17.86 1.1, 96.75 1.86, 116.59 1.54" stroke="#1e1e1e" stroke-width="2" fill="none"></path></g><g transform="translate(554.9804250820685 213.77882827184777) rotate(0 57.96308842048256 0.25675588445386666)"><path d="M93.11 10.12 C97.67 7.68, 105.77 6.06, 116.59 1.54 M93.11 10.12 C101.79 6.58, 109.95 4.91, 116.59 1.54" stroke="#1e1e1e" stroke-width="2" fill="none"></path></g><g transform="translate(554.9804250820685 213.77882827184777) rotate(0 57.96308842048256 0.25675588445386666)"><path d="M93.09 -6.98 C97.68 -4.76, 105.78 -1.71, 116.59 1.54 M93.09 -6.98 C101.87 -4.27, 110.04 0.33, 116.59 1.54" stroke="#1e1e1e" stroke-width="2" fill="none"></path></g></g><mask></mask><g stroke-linecap="round" transform="translate(443.6206762259826 95.11796874999999) rotate(0 70.0390625 68.13671875)"><path d="M32 0 C52.61 0.75, 72.9 -0.71, 108.08 0 M32 0 C57.1 -0.66, 80.96 0.45, 108.08 0 M108.08 0 C131.39 0.43, 140.64 9.12, 140.08 32 M108.08 0 C130.56 1.9, 139.82 9.53, 140.08 32 M140.08 32 C137.7 59.4, 141.28 86.37, 140.08 104.27 M140.08 32 C141.37 51.01, 140.73 69.83, 140.08 104.27 M140.08 104.27 C138.86 126.31, 130.38 137.04, 108.08 136.27 M140.08 104.27 C141.81 124.59, 128.72 136.88, 108.08 136.27 M108.08 136.27 C77.31 135.88, 49.14 136.13, 32 136.27 M108.08 136.27 C89.81 136.35, 71.75 134.59, 32 136.27 M32 136.27 C9.79 135.08, 1.75 123.93, 0 104.27 M32 136.27 C12.18 137.71, 0.74 125.39, 0 104.27 M0 104.27 C-0.79 78.24, 1.17 56.38, 0 32 M0 104.27 C1.24 78.87, 0.98 53.42, 0 32 M0 32 C-0.6 9.9, 11.08 0.52, 32 0 M0 32 C-0.6 11.72, 8.98 2.08, 32 0" stroke="#1e1e1e" stroke-width="2" fill="none"></path></g><g transform="translate(463.6353246634826 100.11796874999999) rotate(0 50.0244140625 23)"><text x="50.0244140625" y="0" font-family="Helvetica, Segoe UI Emoji" font-size="20px" fill="#1e1e1e" text-anchor="middle" style="white-space: pre;" direction="ltr" dominant-baseline="text-before-edge">create-env </text><text x="50.0244140625" y="23" font-family="Helvetica, Segoe UI Emoji" font-size="20px" fill="#1e1e1e" text-anchor="middle" style="white-space: pre;" direction="ltr" dominant-baseline="text-before-edge">container</text></g><g stroke-linecap="round" transform="translate(446.4839574759826 195.25078125) rotate(0 64.78515625 14.600000000000023)"><path d="M7.3 0 C34.56 1.72, 63.88 -1, 122.27 0 M7.3 0 C32.18 0.98, 55.95 0.67, 122.27 0 M122.27 0 C127.57 1.28, 128.23 2.65, 129.57 7.3 M122.27 0 C126.18 -1.13, 128.53 4.72, 129.57 7.3 M129.57 7.3 C129.27 13.62, 129.79 18.47, 129.57 21.9 M129.57 7.3 C130.06 10.86, 129.6 15.17, 129.57 21.9 M129.57 21.9 C128.5 25.31, 128.21 30.7, 122.27 29.2 M129.57 21.9 C129 27.93, 125.98 31.42, 122.27 29.2 M122.27 29.2 C79.79 30.08, 35.32 30.89, 7.3 29.2 M122.27 29.2 C85.77 31.18, 49.98 30.8, 7.3 29.2 M7.3 29.2 C2.15 27.61, 1.99 26.46, 0 21.9 M7.3 29.2 C3.79 30.34, 1.6 25.67, 0 21.9 M0 21.9 C-0.1 17.87, -0.85 11.29, 0 7.3 M0 21.9 C-0.36 17.32, -0.09 12.08, 0 7.3 M0 7.3 C-1.62 3.76, 1.22 1.93, 7.3 0 M0 7.3 C2.22 1.54, 3.52 -1.01, 7.3 0" stroke="#1e1e1e" stroke-width="2" fill="none"></path></g><g transform="translate(492.5191137259826 200.25078125) rotate(0 18.75 9.600000000000023)"><text x="18.75" y="0" font-family="Cascadia, Segoe UI Emoji" font-size="16px" fill="#1e1e1e" text-anchor="middle" style="white-space: pre;" direction="ltr" dominant-baseline="text-before-edge">env/</text></g><g stroke-linecap="round" transform="translate(448.0269262259826 160.57656250000008) rotate(0 64.78515625 14.600000000000023)"><path d="M7.3 0 C50.89 0.15, 96.86 -0.33, 122.27 0 M7.3 0 C34.83 -0.24, 62.97 0.91, 122.27 0 M122.27 0 C127.84 1.15, 130.75 1.83, 129.57 7.3 M122.27 0 C127.21 -1.3, 128.72 2.31, 129.57 7.3 M129.57 7.3 C130.54 11.32, 130.8 15.19, 129.57 21.9 M129.57 7.3 C129.53 11.71, 129.08 15, 129.57 21.9 M129.57 21.9 C129.78 25.67, 128.17 27.51, 122.27 29.2 M129.57 21.9 C131.76 25.81, 125.69 26.98, 122.27 29.2 M122.27 29.2 C97.74 30.18, 75.93 27.04, 7.3 29.2 M122.27 29.2 C81.76 27.77, 38.73 27.81, 7.3 29.2 M7.3 29.2 C2.12 27.54, -1.26 24.79, 0 21.9 M7.3 29.2 C2.52 30.22, -1.24 26.18, 0 21.9 M0 21.9 C0.42 17.48, -0.12 12.96, 0 7.3 M0 21.9 C0.16 17.4, 0.56 12.32, 0 7.3 M0 7.3 C0.54 3.61, 2.76 1.66, 7.3 0 M0 7.3 C1.89 1.44, 0.52 -0.21, 7.3 0" stroke="#1e1e1e" stroke-width="2" fill="none"></path></g><g transform="translate(489.3745824759826 165.57656250000008) rotate(0 23.4375 9.600000000000023)"><text x="23.4375" y="0" font-family="Cascadia, Segoe UI Emoji" font-size="16px" fill="#1e1e1e" text-anchor="middle" style="white-space: pre;" direction="ltr" dominant-baseline="text-before-edge">conda</text></g><g transform="translate(34.412668413482606 162.4171875) rotate(0 44.3447265625 16.100000000000023)"><text x="0" y="0" font-family="Helvetica, Segoe UI Emoji" font-size="28px" fill="#1e1e1e" text-anchor="start" style="white-space: pre;" direction="ltr" dominant-baseline="text-before-edge">Docker</text></g><g transform="translate(34.412668413482606 287.47109374999997) rotate(0 28.7861328125 16.100000000000023)"><text x="0" y="0" font-family="Helvetica, Segoe UI Emoji" font-size="28px" fill="#1e1e1e" text-anchor="start" style="white-space: pre;" direction="ltr" dominant-baseline="text-before-edge">Host</text></g><g stroke-linecap="round" transform="translate(170.0073949759826 74.56134367618273) rotate(0 93.767578125 84.0625)"><path d="M32 0 C68.56 1.45, 101.09 -1.11, 155.54 0 M32 0 C59.41 0.32, 88.06 -0.34, 155.54 0 M155.54 0 C175.91 0.98, 189.28 11.57, 187.54 32 M155.54 0 C176.19 -0.43, 189.82 9.82, 187.54 32 M187.54 32 C185.44 56.17, 188.13 83.04, 187.54 136.12 M187.54 32 C188.72 64.42, 188.29 96.71, 187.54 136.12 M187.54 136.12 C189.11 158.29, 178.42 168.29, 155.54 168.12 M187.54 136.12 C186.39 158.25, 175.26 166.98, 155.54 168.12 M155.54 168.12 C107.5 168.36, 61.58 166.41, 32 168.12 M155.54 168.12 C109.43 167.93, 64.73 166.31, 32 168.12 M32 168.12 C10.24 169.45, 1.27 159, 0 136.12 M32 168.12 C12.15 167.44, 0.82 156.71, 0 136.12 M0 136.12 C1.68 104.36, 0.8 70.55, 0 32 M0 136.12 C-0.46 98.87, -0.83 62.79, 0 32 M0 32 C0.26 12.39, 11.18 1.4, 32 0 M0 32 C-1.37 12.63, 11.04 -2.07, 32 0" stroke="#1e1e1e" stroke-width="2" fill="none"></path></g><g transform="translate(219.8589574759826 79.56134367618273) rotate(0 43.916015625 23)"><text x="43.916015625" y="0" font-family="Helvetica, Segoe UI Emoji" font-size="20px" fill="#1e1e1e" text-anchor="middle" style="white-space: pre;" direction="ltr" dominant-baseline="text-before-edge">build-env</text><text x="43.916015625" y="23" font-family="Helvetica, Segoe UI Emoji" font-size="20px" fill="#1e1e1e" text-anchor="middle" style="white-space: pre;" direction="ltr" dominant-baseline="text-before-edge"> container</text></g><g stroke-linecap="round" transform="translate(199.9898168509826 143.38563989021821) rotate(0 64.78515625 14.600000000000023)"><path d="M7.3 0 C47.23 1.29, 88.66 2.65, 122.27 0 M7.3 0 C43.1 -0.71, 79.87 -0.5, 122.27 0 M122.27 0 C125.37 -0.59, 130.28 2.07, 129.57 7.3 M122.27 0 C128.94 -1.71, 131.71 2.84, 129.57 7.3 M129.57 7.3 C130.44 12.64, 130.34 17.65, 129.57 21.9 M129.57 7.3 C128.89 9.92, 129.02 13.37, 129.57 21.9 M129.57 21.9 C130.61 25.15, 125.84 29.44, 122.27 29.2 M129.57 21.9 C130.84 25.19, 127.76 30.23, 122.27 29.2 M122.27 29.2 C87.75 31.74, 56.5 30.33, 7.3 29.2 M122.27 29.2 C91.42 29.29, 61.01 28.29, 7.3 29.2 M7.3 29.2 C2.82 30.62, -0.31 28.33, 0 21.9 M7.3 29.2 C2.92 29.08, -0.64 24.99, 0 21.9 M0 21.9 C0.02 17.1, 0.13 9.5, 0 7.3 M0 21.9 C-0.62 18.67, 0.65 14.17, 0 7.3 M0 7.3 C0.2 1.51, 1.89 0.35, 7.3 0 M0 7.3 C-0.46 2.18, 4.02 -0.21, 7.3 0" stroke="#1e1e1e" stroke-width="2" fill="none"></path></g><g transform="translate(241.3374731009826 148.38563989021821) rotate(0 23.4375 9.600000000000023)"><text x="23.4375" y="0" font-family="Cascadia, Segoe UI Emoji" font-size="16px" fill="#1e1e1e" text-anchor="middle" style="white-space: pre;" direction="ltr" dominant-baseline="text-before-edge">conda</text></g><g stroke-linecap="round" transform="translate(200.29834227620938 184.0775305336726) rotate(0 64.78515625 14.600000000000023)"><path d="M7.3 0 C49.88 2.09, 93.22 0.49, 122.27 0 M7.3 0 C44.87 -0.72, 82.48 -1.66, 122.27 0 M122.27 0 C127.37 1.39, 127.71 1.3, 129.57 7.3 M122.27 0 C127.2 0.49, 127.55 2.13, 129.57 7.3 M129.57 7.3 C128.45 11.91, 130.41 14.49, 129.57 21.9 M129.57 7.3 C129.67 11.93, 130.12 17.22, 129.57 21.9 M129.57 21.9 C128.91 25.79, 127.09 30.94, 122.27 29.2 M129.57 21.9 C131.6 28.07, 129.12 28.56, 122.27 29.2 M122.27 29.2 C80.18 29.47, 34.03 28.09, 7.3 29.2 M122.27 29.2 C94.36 28.9, 65.08 28.3, 7.3 29.2 M7.3 29.2 C1.02 28.05, 0.57 27.9, 0 21.9 M7.3 29.2 C3.66 28.75, 1.21 25.42, 0 21.9 M0 21.9 C-1.11 18.09, 0.38 15.57, 0 7.3 M0 21.9 C0.11 19.03, -0.5 14.56, 0 7.3 M0 7.3 C1.74 1.35, 3.96 -1.7, 7.3 0 M0 7.3 C-0.3 3.51, 0.92 1.51, 7.3 0" stroke="#1e1e1e" stroke-width="2" fill="none"></path></g><g transform="translate(213.52099852620938 189.0775305336726) rotate(0 51.5625 9.600000000000023)"><text x="51.5625" y="0" font-family="Cascadia, Segoe UI Emoji" font-size="16px" fill="#1e1e1e" text-anchor="middle" style="white-space: pre;" direction="ltr" dominant-baseline="text-before-edge">conda-build</text></g><g stroke-linecap="round" transform="translate(130.3816271754913 264.75937500000003) rotate(0 20.5 20.5)"><path d="M41 20.5 C41 21.69, 40.89 22.89, 40.69 24.06 C40.48 25.23, 40.17 26.4, 39.76 27.51 C39.36 28.63, 38.85 29.72, 38.25 30.75 C37.66 31.78, 36.97 32.77, 36.2 33.68 C35.44 34.59, 34.59 35.44, 33.68 36.2 C32.77 36.97, 31.78 37.66, 30.75 38.25 C29.72 38.85, 28.63 39.36, 27.51 39.76 C26.4 40.17, 25.23 40.48, 24.06 40.69 C22.89 40.89, 21.69 41, 20.5 41 C19.31 41, 18.11 40.89, 16.94 40.69 C15.77 40.48, 14.6 40.17, 13.49 39.76 C12.37 39.36, 11.28 38.85, 10.25 38.25 C9.22 37.66, 8.23 36.97, 7.32 36.2 C6.41 35.44, 5.56 34.59, 4.8 33.68 C4.03 32.77, 3.34 31.78, 2.75 30.75 C2.15 29.72, 1.64 28.63, 1.24 27.51 C0.83 26.4, 0.52 25.23, 0.31 24.06 C0.11 22.89, 0 21.69, 0 20.5 C0 19.31, 0.11 18.11, 0.31 16.94 C0.52 15.77, 0.83 14.6, 1.24 13.49 C1.64 12.37, 2.15 11.28, 2.75 10.25 C3.34 9.22, 4.03 8.23, 4.8 7.32 C5.56 6.41, 6.41 5.56, 7.32 4.8 C8.23 4.03, 9.22 3.34, 10.25 2.75 C11.28 2.15, 12.37 1.64, 13.49 1.24 C14.6 0.83, 15.77 0.52, 16.94 0.31 C18.11 0.11, 19.31 0, 20.5 0 C21.69 0, 22.89 0.11, 24.06 0.31 C25.23 0.52, 26.4 0.83, 27.51 1.24 C28.63 1.64, 29.72 2.15, 30.75 2.75 C31.78 3.34, 32.77 4.03, 33.68 4.8 C34.59 5.56, 35.44 6.41, 36.2 7.32 C36.97 8.23, 37.66 9.22, 38.25 10.25 C38.85 11.28, 39.36 12.37, 39.76 13.49 C40.17 14.6, 40.48 15.77, 40.69 16.94 C40.89 18.11, 40.95 19.91, 41 20.5 C41.05 21.09, 41.05 19.91, 41 20.5" stroke="none" stroke-width="0" fill="#ffffff"></path><path d="M41 20.5 C41 21.69, 40.89 22.89, 40.69 24.06 C40.48 25.23, 40.17 26.4, 39.76 27.51 C39.36 28.63, 38.85 29.72, 38.25 30.75 C37.66 31.78, 36.97 32.77, 36.2 33.68 C35.44 34.59, 34.59 35.44, 33.68 36.2 C32.77 36.97, 31.78 37.66, 30.75 38.25 C29.72 38.85, 28.63 39.36, 27.51 39.76 C26.4 40.17, 25.23 40.48, 24.06 40.69 C22.89 40.89, 21.69 41, 20.5 41 C19.31 41, 18.11 40.89, 16.94 40.69 C15.77 40.48, 14.6 40.17, 13.49 39.76 C12.37 39.36, 11.28 38.85, 10.25 38.25 C9.22 37.66, 8.23 36.97, 7.32 36.2 C6.41 35.44, 5.56 34.59, 4.8 33.68 C4.03 32.77, 3.34 31.78, 2.75 30.75 C2.15 29.72, 1.64 28.63, 1.24 27.51 C0.83 26.4, 0.52 25.23, 0.31 24.06 C0.11 22.89, 0 21.69, 0 20.5 C0 19.31, 0.11 18.11, 0.31 16.94 C0.52 15.77, 0.83 14.6, 1.24 13.49 C1.64 12.37, 2.15 11.28, 2.75 10.25 C3.34 9.22, 4.03 8.23, 4.8 7.32 C5.56 6.41, 6.41 5.56, 7.32 4.8 C8.23 4.03, 9.22 3.34, 10.25 2.75 C11.28 2.15, 12.37 1.64, 13.49 1.24 C14.6 0.83, 15.77 0.52, 16.94 0.31 C18.11 0.11, 19.31 0, 20.5 0 C21.69 0, 22.89 0.11, 24.06 0.31 C25.23 0.52, 26.4 0.83, 27.51 1.24 C28.63 1.64, 29.72 2.15, 30.75 2.75 C31.78 3.34, 32.77 4.03, 33.68 4.8 C34.59 5.56, 35.44 6.41, 36.2 7.32 C36.97 8.23, 37.66 9.22, 38.25 10.25 C38.85 11.28, 39.36 12.37, 39.76 13.49 C40.17 14.6, 40.48 15.77, 40.69 16.94 C40.89 18.11, 40.95 19.91, 41 20.5 C41.05 21.09, 41.05 19.91, 41 20.5" stroke="#1971c2" stroke-width="4" fill="none"></path></g><g transform="translate(146.43593835190194 276.0636859856758) rotate(0 4.449999809265137 9.199999999999989)"><text x="4.449999809265137" y="0" font-family="Helvetica, Segoe UI Emoji" font-size="16px" fill="#1971c2" text-anchor="middle" style="white-space: pre;" direction="ltr" dominant-baseline="text-before-edge">1</text></g><g stroke-linecap="round" transform="translate(146.3816271754913 60.759375000000034) rotate(0 20.5 20.5)"><path d="M41 20.5 C41 21.69, 40.89 22.89, 40.69 24.06 C40.48 25.23, 40.17 26.4, 39.76 27.51 C39.36 28.63, 38.85 29.72, 38.25 30.75 C37.66 31.78, 36.97 32.77, 36.2 33.68 C35.44 34.59, 34.59 35.44, 33.68 36.2 C32.77 36.97, 31.78 37.66, 30.75 38.25 C29.72 38.85, 28.63 39.36, 27.51 39.76 C26.4 40.17, 25.23 40.48, 24.06 40.69 C22.89 40.89, 21.69 41, 20.5 41 C19.31 41, 18.11 40.89, 16.94 40.69 C15.77 40.48, 14.6 40.17, 13.49 39.76 C12.37 39.36, 11.28 38.85, 10.25 38.25 C9.22 37.66, 8.23 36.97, 7.32 36.2 C6.41 35.44, 5.56 34.59, 4.8 33.68 C4.03 32.77, 3.34 31.78, 2.75 30.75 C2.15 29.72, 1.64 28.63, 1.24 27.51 C0.83 26.4, 0.52 25.23, 0.31 24.06 C0.11 22.89, 0 21.69, 0 20.5 C0 19.31, 0.11 18.11, 0.31 16.94 C0.52 15.77, 0.83 14.6, 1.24 13.49 C1.64 12.37, 2.15 11.28, 2.75 10.25 C3.34 9.22, 4.03 8.23, 4.8 7.32 C5.56 6.41, 6.41 5.56, 7.32 4.8 C8.23 4.03, 9.22 3.34, 10.25 2.75 C11.28 2.15, 12.37 1.64, 13.49 1.24 C14.6 0.83, 15.77 0.52, 16.94 0.31 C18.11 0.11, 19.31 0, 20.5 0 C21.69 0, 22.89 0.11, 24.06 0.31 C25.23 0.52, 26.4 0.83, 27.51 1.24 C28.63 1.64, 29.72 2.15, 30.75 2.75 C31.78 3.34, 32.77 4.03, 33.68 4.8 C34.59 5.56, 35.44 6.41, 36.2 7.32 C36.97 8.23, 37.66 9.22, 38.25 10.25 C38.85 11.28, 39.36 12.37, 39.76 13.49 C40.17 14.6, 40.48 15.77, 40.69 16.94 C40.89 18.11, 40.95 19.91, 41 20.5 C41.05 21.09, 41.05 19.91, 41 20.5" stroke="none" stroke-width="0" fill="#ffffff"></path><path d="M41 20.5 C41 21.69, 40.89 22.89, 40.69 24.06 C40.48 25.23, 40.17 26.4, 39.76 27.51 C39.36 28.63, 38.85 29.72, 38.25 30.75 C37.66 31.78, 36.97 32.77, 36.2 33.68 C35.44 34.59, 34.59 35.44, 33.68 36.2 C32.77 36.97, 31.78 37.66, 30.75 38.25 C29.72 38.85, 28.63 39.36, 27.51 39.76 C26.4 40.17, 25.23 40.48, 24.06 40.69 C22.89 40.89, 21.69 41, 20.5 41 C19.31 41, 18.11 40.89, 16.94 40.69 C15.77 40.48, 14.6 40.17, 13.49 39.76 C12.37 39.36, 11.28 38.85, 10.25 38.25 C9.22 37.66, 8.23 36.97, 7.32 36.2 C6.41 35.44, 5.56 34.59, 4.8 33.68 C4.03 32.77, 3.34 31.78, 2.75 30.75 C2.15 29.72, 1.64 28.63, 1.24 27.51 C0.83 26.4, 0.52 25.23, 0.31 24.06 C0.11 22.89, 0 21.69, 0 20.5 C0 19.31, 0.11 18.11, 0.31 16.94 C0.52 15.77, 0.83 14.6, 1.24 13.49 C1.64 12.37, 2.15 11.28, 2.75 10.25 C3.34 9.22, 4.03 8.23, 4.8 7.32 C5.56 6.41, 6.41 5.56, 7.32 4.8 C8.23 4.03, 9.22 3.34, 10.25 2.75 C11.28 2.15, 12.37 1.64, 13.49 1.24 C14.6 0.83, 15.77 0.52, 16.94 0.31 C18.11 0.11, 19.31 0, 20.5 0 C21.69 0, 22.89 0.11, 24.06 0.31 C25.23 0.52, 26.4 0.83, 27.51 1.24 C28.63 1.64, 29.72 2.15, 30.75 2.75 C31.78 3.34, 32.77 4.03, 33.68 4.8 C34.59 5.56, 35.44 6.41, 36.2 7.32 C36.97 8.23, 37.66 9.22, 38.25 10.25 C38.85 11.28, 39.36 12.37, 39.76 13.49 C40.17 14.6, 40.48 15.77, 40.69 16.94 C40.89 18.11, 40.95 19.91, 41 20.5 C41.05 21.09, 41.05 19.91, 41 20.5" stroke="#1971c2" stroke-width="4" fill="none"></path></g><g transform="translate(162.43593835190194 72.06368598567582) rotate(0 4.449999809265137 9.199999999999989)"><text x="4.449999809265137" y="0" font-family="Helvetica, Segoe UI Emoji" font-size="16px" fill="#1971c2" text-anchor="middle" style="white-space: pre;" direction="ltr" dominant-baseline="text-before-edge">2</text></g><g stroke-linecap="round" transform="translate(323.3816271754913 264.75937500000003) rotate(0 20.5 20.5)"><path d="M41 20.5 C41 21.69, 40.89 22.89, 40.69 24.06 C40.48 25.23, 40.17 26.4, 39.76 27.51 C39.36 28.63, 38.85 29.72, 38.25 30.75 C37.66 31.78, 36.97 32.77, 36.2 33.68 C35.44 34.59, 34.59 35.44, 33.68 36.2 C32.77 36.97, 31.78 37.66, 30.75 38.25 C29.72 38.85, 28.63 39.36, 27.51 39.76 C26.4 40.17, 25.23 40.48, 24.06 40.69 C22.89 40.89, 21.69 41, 20.5 41 C19.31 41, 18.11 40.89, 16.94 40.69 C15.77 40.48, 14.6 40.17, 13.49 39.76 C12.37 39.36, 11.28 38.85, 10.25 38.25 C9.22 37.66, 8.23 36.97, 7.32 36.2 C6.41 35.44, 5.56 34.59, 4.8 33.68 C4.03 32.77, 3.34 31.78, 2.75 30.75 C2.15 29.72, 1.64 28.63, 1.24 27.51 C0.83 26.4, 0.52 25.23, 0.31 24.06 C0.11 22.89, 0 21.69, 0 20.5 C0 19.31, 0.11 18.11, 0.31 16.94 C0.52 15.77, 0.83 14.6, 1.24 13.49 C1.64 12.37, 2.15 11.28, 2.75 10.25 C3.34 9.22, 4.03 8.23, 4.8 7.32 C5.56 6.41, 6.41 5.56, 7.32 4.8 C8.23 4.03, 9.22 3.34, 10.25 2.75 C11.28 2.15, 12.37 1.64, 13.49 1.24 C14.6 0.83, 15.77 0.52, 16.94 0.31 C18.11 0.11, 19.31 0, 20.5 0 C21.69 0, 22.89 0.11, 24.06 0.31 C25.23 0.52, 26.4 0.83, 27.51 1.24 C28.63 1.64, 29.72 2.15, 30.75 2.75 C31.78 3.34, 32.77 4.03, 33.68 4.8 C34.59 5.56, 35.44 6.41, 36.2 7.32 C36.97 8.23, 37.66 9.22, 38.25 10.25 C38.85 11.28, 39.36 12.37, 39.76 13.49 C40.17 14.6, 40.48 15.77, 40.69 16.94 C40.89 18.11, 40.95 19.91, 41 20.5 C41.05 21.09, 41.05 19.91, 41 20.5" stroke="none" stroke-width="0" fill="#ffffff"></path><path d="M41 20.5 C41 21.69, 40.89 22.89, 40.69 24.06 C40.48 25.23, 40.17 26.4, 39.76 27.51 C39.36 28.63, 38.85 29.72, 38.25 30.75 C37.66 31.78, 36.97 32.77, 36.2 33.68 C35.44 34.59, 34.59 35.44, 33.68 36.2 C32.77 36.97, 31.78 37.66, 30.75 38.25 C29.72 38.85, 28.63 39.36, 27.51 39.76 C26.4 40.17, 25.23 40.48, 24.06 40.69 C22.89 40.89, 21.69 41, 20.5 41 C19.31 41, 18.11 40.89, 16.94 40.69 C15.77 40.48, 14.6 40.17, 13.49 39.76 C12.37 39.36, 11.28 38.85, 10.25 38.25 C9.22 37.66, 8.23 36.97, 7.32 36.2 C6.41 35.44, 5.56 34.59, 4.8 33.68 C4.03 32.77, 3.34 31.78, 2.75 30.75 C2.15 29.72, 1.64 28.63, 1.24 27.51 C0.83 26.4, 0.52 25.23, 0.31 24.06 C0.11 22.89, 0 21.69, 0 20.5 C0 19.31, 0.11 18.11, 0.31 16.94 C0.52 15.77, 0.83 14.6, 1.24 13.49 C1.64 12.37, 2.15 11.28, 2.75 10.25 C3.34 9.22, 4.03 8.23, 4.8 7.32 C5.56 6.41, 6.41 5.56, 7.32 4.8 C8.23 4.03, 9.22 3.34, 10.25 2.75 C11.28 2.15, 12.37 1.64, 13.49 1.24 C14.6 0.83, 15.77 0.52, 16.94 0.31 C18.11 0.11, 19.31 0, 20.5 0 C21.69 0, 22.89 0.11, 24.06 0.31 C25.23 0.52, 26.4 0.83, 27.51 1.24 C28.63 1.64, 29.72 2.15, 30.75 2.75 C31.78 3.34, 32.77 4.03, 33.68 4.8 C34.59 5.56, 35.44 6.41, 36.2 7.32 C36.97 8.23, 37.66 9.22, 38.25 10.25 C38.85 11.28, 39.36 12.37, 39.76 13.49 C40.17 14.6, 40.48 15.77, 40.69 16.94 C40.89 18.11, 40.95 19.91, 41 20.5 C41.05 21.09, 41.05 19.91, 41 20.5" stroke="#1971c2" stroke-width="4" fill="none"></path></g><g transform="translate(339.43593835190194 276.0636859856758) rotate(0 4.449999809265137 9.199999999999989)"><text x="4.449999809265137" y="0" font-family="Helvetica, Segoe UI Emoji" font-size="16px" fill="#1971c2" text-anchor="middle" style="white-space: pre;" direction="ltr" dominant-baseline="text-before-edge">3</text></g><g stroke-linecap="round" transform="translate(458.3816271754913 267.75937500000003) rotate(0 20.5 20.5)"><path d="M41 20.5 C41 21.69, 40.89 22.89, 40.69 24.06 C40.48 25.23, 40.17 26.4, 39.76 27.51 C39.36 28.63, 38.85 29.72, 38.25 30.75 C37.66 31.78, 36.97 32.77, 36.2 33.68 C35.44 34.59, 34.59 35.44, 33.68 36.2 C32.77 36.97, 31.78 37.66, 30.75 38.25 C29.72 38.85, 28.63 39.36, 27.51 39.76 C26.4 40.17, 25.23 40.48, 24.06 40.69 C22.89 40.89, 21.69 41, 20.5 41 C19.31 41, 18.11 40.89, 16.94 40.69 C15.77 40.48, 14.6 40.17, 13.49 39.76 C12.37 39.36, 11.28 38.85, 10.25 38.25 C9.22 37.66, 8.23 36.97, 7.32 36.2 C6.41 35.44, 5.56 34.59, 4.8 33.68 C4.03 32.77, 3.34 31.78, 2.75 30.75 C2.15 29.72, 1.64 28.63, 1.24 27.51 C0.83 26.4, 0.52 25.23, 0.31 24.06 C0.11 22.89, 0 21.69, 0 20.5 C0 19.31, 0.11 18.11, 0.31 16.94 C0.52 15.77, 0.83 14.6, 1.24 13.49 C1.64 12.37, 2.15 11.28, 2.75 10.25 C3.34 9.22, 4.03 8.23, 4.8 7.32 C5.56 6.41, 6.41 5.56, 7.32 4.8 C8.23 4.03, 9.22 3.34, 10.25 2.75 C11.28 2.15, 12.37 1.64, 13.49 1.24 C14.6 0.83, 15.77 0.52, 16.94 0.31 C18.11 0.11, 19.31 0, 20.5 0 C21.69 0, 22.89 0.11, 24.06 0.31 C25.23 0.52, 26.4 0.83, 27.51 1.24 C28.63 1.64, 29.72 2.15, 30.75 2.75 C31.78 3.34, 32.77 4.03, 33.68 4.8 C34.59 5.56, 35.44 6.41, 36.2 7.32 C36.97 8.23, 37.66 9.22, 38.25 10.25 C38.85 11.28, 39.36 12.37, 39.76 13.49 C40.17 14.6, 40.48 15.77, 40.69 16.94 C40.89 18.11, 40.95 19.91, 41 20.5 C41.05 21.09, 41.05 19.91, 41 20.5" stroke="none" stroke-width="0" fill="#ffffff"></path><path d="M41 20.5 C41 21.69, 40.89 22.89, 40.69 24.06 C40.48 25.23, 40.17 26.4, 39.76 27.51 C39.36 28.63, 38.85 29.72, 38.25 30.75 C37.66 31.78, 36.97 32.77, 36.2 33.68 C35.44 34.59, 34.59 35.44, 33.68 36.2 C32.77 36.97, 31.78 37.66, 30.75 38.25 C29.72 38.85, 28.63 39.36, 27.51 39.76 C26.4 40.17, 25.23 40.48, 24.06 40.69 C22.89 40.89, 21.69 41, 20.5 41 C19.31 41, 18.11 40.89, 16.94 40.69 C15.77 40.48, 14.6 40.17, 13.49 39.76 C12.37 39.36, 11.28 38.85, 10.25 38.25 C9.22 37.66, 8.23 36.97, 7.32 36.2 C6.41 35.44, 5.56 34.59, 4.8 33.68 C4.03 32.77, 3.34 31.78, 2.75 30.75 C2.15 29.72, 1.64 28.63, 1.24 27.51 C0.83 26.4, 0.52 25.23, 0.31 24.06 C0.11 22.89, 0 21.69, 0 20.5 C0 19.31, 0.11 18.11, 0.31 16.94 C0.52 15.77, 0.83 14.6, 1.24 13.49 C1.64 12.37, 2.15 11.28, 2.75 10.25 C3.34 9.22, 4.03 8.23, 4.8 7.32 C5.56 6.41, 6.41 5.56, 7.32 4.8 C8.23 4.03, 9.22 3.34, 10.25 2.75 C11.28 2.15, 12.37 1.64, 13.49 1.24 C14.6 0.83, 15.77 0.52, 16.94 0.31 C18.11 0.11, 19.31 0, 20.5 0 C21.69 0, 22.89 0.11, 24.06 0.31 C25.23 0.52, 26.4 0.83, 27.51 1.24 C28.63 1.64, 29.72 2.15, 30.75 2.75 C31.78 3.34, 32.77 4.03, 33.68 4.8 C34.59 5.56, 35.44 6.41, 36.2 7.32 C36.97 8.23, 37.66 9.22, 38.25 10.25 C38.85 11.28, 39.36 12.37, 39.76 13.49 C40.17 14.6, 40.48 15.77, 40.69 16.94 C40.89 18.11, 40.95 19.91, 41 20.5 C41.05 21.09, 41.05 19.91, 41 20.5" stroke="#1971c2" stroke-width="4" fill="none"></path></g><g transform="translate(474.435938351902 279.0636859856758) rotate(0 4.449999809265137 9.199999999999989)"><text x="4.449999809265137" y="0" font-family="Helvetica, Segoe UI Emoji" font-size="16px" fill="#1971c2" text-anchor="middle" style="white-space: pre;" direction="ltr" dominant-baseline="text-before-edge">4</text></g><g stroke-linecap="round" transform="translate(418.3816271754913 86.75937500000003) rotate(0 20.5 20.5)"><path d="M41 20.5 C41 21.69, 40.89 22.89, 40.69 24.06 C40.48 25.23, 40.17 26.4, 39.76 27.51 C39.36 28.63, 38.85 29.72, 38.25 30.75 C37.66 31.78, 36.97 32.77, 36.2 33.68 C35.44 34.59, 34.59 35.44, 33.68 36.2 C32.77 36.97, 31.78 37.66, 30.75 38.25 C29.72 38.85, 28.63 39.36, 27.51 39.76 C26.4 40.17, 25.23 40.48, 24.06 40.69 C22.89 40.89, 21.69 41, 20.5 41 C19.31 41, 18.11 40.89, 16.94 40.69 C15.77 40.48, 14.6 40.17, 13.49 39.76 C12.37 39.36, 11.28 38.85, 10.25 38.25 C9.22 37.66, 8.23 36.97, 7.32 36.2 C6.41 35.44, 5.56 34.59, 4.8 33.68 C4.03 32.77, 3.34 31.78, 2.75 30.75 C2.15 29.72, 1.64 28.63, 1.24 27.51 C0.83 26.4, 0.52 25.23, 0.31 24.06 C0.11 22.89, 0 21.69, 0 20.5 C0 19.31, 0.11 18.11, 0.31 16.94 C0.52 15.77, 0.83 14.6, 1.24 13.49 C1.64 12.37, 2.15 11.28, 2.75 10.25 C3.34 9.22, 4.03 8.23, 4.8 7.32 C5.56 6.41, 6.41 5.56, 7.32 4.8 C8.23 4.03, 9.22 3.34, 10.25 2.75 C11.28 2.15, 12.37 1.64, 13.49 1.24 C14.6 0.83, 15.77 0.52, 16.94 0.31 C18.11 0.11, 19.31 0, 20.5 0 C21.69 0, 22.89 0.11, 24.06 0.31 C25.23 0.52, 26.4 0.83, 27.51 1.24 C28.63 1.64, 29.72 2.15, 30.75 2.75 C31.78 3.34, 32.77 4.03, 33.68 4.8 C34.59 5.56, 35.44 6.41, 36.2 7.32 C36.97 8.23, 37.66 9.22, 38.25 10.25 C38.85 11.28, 39.36 12.37, 39.76 13.49 C40.17 14.6, 40.48 15.77, 40.69 16.94 C40.89 18.11, 40.95 19.91, 41 20.5 C41.05 21.09, 41.05 19.91, 41 20.5" stroke="none" stroke-width="0" fill="#ffffff"></path><path d="M41 20.5 C41 21.69, 40.89 22.89, 40.69 24.06 C40.48 25.23, 40.17 26.4, 39.76 27.51 C39.36 28.63, 38.85 29.72, 38.25 30.75 C37.66 31.78, 36.97 32.77, 36.2 33.68 C35.44 34.59, 34.59 35.44, 33.68 36.2 C32.77 36.97, 31.78 37.66, 30.75 38.25 C29.72 38.85, 28.63 39.36, 27.51 39.76 C26.4 40.17, 25.23 40.48, 24.06 40.69 C22.89 40.89, 21.69 41, 20.5 41 C19.31 41, 18.11 40.89, 16.94 40.69 C15.77 40.48, 14.6 40.17, 13.49 39.76 C12.37 39.36, 11.28 38.85, 10.25 38.25 C9.22 37.66, 8.23 36.97, 7.32 36.2 C6.41 35.44, 5.56 34.59, 4.8 33.68 C4.03 32.77, 3.34 31.78, 2.75 30.75 C2.15 29.72, 1.64 28.63, 1.24 27.51 C0.83 26.4, 0.52 25.23, 0.31 24.06 C0.11 22.89, 0 21.69, 0 20.5 C0 19.31, 0.11 18.11, 0.31 16.94 C0.52 15.77, 0.83 14.6, 1.24 13.49 C1.64 12.37, 2.15 11.28, 2.75 10.25 C3.34 9.22, 4.03 8.23, 4.8 7.32 C5.56 6.41, 6.41 5.56, 7.32 4.8 C8.23 4.03, 9.22 3.34, 10.25 2.75 C11.28 2.15, 12.37 1.64, 13.49 1.24 C14.6 0.83, 15.77 0.52, 16.94 0.31 C18.11 0.11, 19.31 0, 20.5 0 C21.69 0, 22.89 0.11, 24.06 0.31 C25.23 0.52, 26.4 0.83, 27.51 1.24 C28.63 1.64, 29.72 2.15, 30.75 2.75 C31.78 3.34, 32.77 4.03, 33.68 4.8 C34.59 5.56, 35.44 6.41, 36.2 7.32 C36.97 8.23, 37.66 9.22, 38.25 10.25 C38.85 11.28, 39.36 12.37, 39.76 13.49 C40.17 14.6, 40.48 15.77, 40.69 16.94 C40.89 18.11, 40.95 19.91, 41 20.5 C41.05 21.09, 41.05 19.91, 41 20.5" stroke="#1971c2" stroke-width="4" fill="none"></path></g><g transform="translate(434.435938351902 98.06368598567582) rotate(0 4.449999809265137 9.199999999999989)"><text x="4.449999809265137" y="0" font-family="Helvetica, Segoe UI Emoji" font-size="16px" fill="#1971c2" text-anchor="middle" style="white-space: pre;" direction="ltr" dominant-baseline="text-before-edge">5</text></g><g stroke-linecap="round" transform="translate(650.3816271754913 129.75937500000003) rotate(0 20.5 20.5)"><path d="M41 20.5 C41 21.69, 40.89 22.89, 40.69 24.06 C40.48 25.23, 40.17 26.4, 39.76 27.51 C39.36 28.63, 38.85 29.72, 38.25 30.75 C37.66 31.78, 36.97 32.77, 36.2 33.68 C35.44 34.59, 34.59 35.44, 33.68 36.2 C32.77 36.97, 31.78 37.66, 30.75 38.25 C29.72 38.85, 28.63 39.36, 27.51 39.76 C26.4 40.17, 25.23 40.48, 24.06 40.69 C22.89 40.89, 21.69 41, 20.5 41 C19.31 41, 18.11 40.89, 16.94 40.69 C15.77 40.48, 14.6 40.17, 13.49 39.76 C12.37 39.36, 11.28 38.85, 10.25 38.25 C9.22 37.66, 8.23 36.97, 7.32 36.2 C6.41 35.44, 5.56 34.59, 4.8 33.68 C4.03 32.77, 3.34 31.78, 2.75 30.75 C2.15 29.72, 1.64 28.63, 1.24 27.51 C0.83 26.4, 0.52 25.23, 0.31 24.06 C0.11 22.89, 0 21.69, 0 20.5 C0 19.31, 0.11 18.11, 0.31 16.94 C0.52 15.77, 0.83 14.6, 1.24 13.49 C1.64 12.37, 2.15 11.28, 2.75 10.25 C3.34 9.22, 4.03 8.23, 4.8 7.32 C5.56 6.41, 6.41 5.56, 7.32 4.8 C8.23 4.03, 9.22 3.34, 10.25 2.75 C11.28 2.15, 12.37 1.64, 13.49 1.24 C14.6 0.83, 15.77 0.52, 16.94 0.31 C18.11 0.11, 19.31 0, 20.5 0 C21.69 0, 22.89 0.11, 24.06 0.31 C25.23 0.52, 26.4 0.83, 27.51 1.24 C28.63 1.64, 29.72 2.15, 30.75 2.75 C31.78 3.34, 32.77 4.03, 33.68 4.8 C34.59 5.56, 35.44 6.41, 36.2 7.32 C36.97 8.23, 37.66 9.22, 38.25 10.25 C38.85 11.28, 39.36 12.37, 39.76 13.49 C40.17 14.6, 40.48 15.77, 40.69 16.94 C40.89 18.11, 40.95 19.91, 41 20.5 C41.05 21.09, 41.05 19.91, 41 20.5" stroke="none" stroke-width="0" fill="#ffffff"></path><path d="M41 20.5 C41 21.69, 40.89 22.89, 40.69 24.06 C40.48 25.23, 40.17 26.4, 39.76 27.51 C39.36 28.63, 38.85 29.72, 38.25 30.75 C37.66 31.78, 36.97 32.77, 36.2 33.68 C35.44 34.59, 34.59 35.44, 33.68 36.2 C32.77 36.97, 31.78 37.66, 30.75 38.25 C29.72 38.85, 28.63 39.36, 27.51 39.76 C26.4 40.17, 25.23 40.48, 24.06 40.69 C22.89 40.89, 21.69 41, 20.5 41 C19.31 41, 18.11 40.89, 16.94 40.69 C15.77 40.48, 14.6 40.17, 13.49 39.76 C12.37 39.36, 11.28 38.85, 10.25 38.25 C9.22 37.66, 8.23 36.97, 7.32 36.2 C6.41 35.44, 5.56 34.59, 4.8 33.68 C4.03 32.77, 3.34 31.78, 2.75 30.75 C2.15 29.72, 1.64 28.63, 1.24 27.51 C0.83 26.4, 0.52 25.23, 0.31 24.06 C0.11 22.89, 0 21.69, 0 20.5 C0 19.31, 0.11 18.11, 0.31 16.94 C0.52 15.77, 0.83 14.6, 1.24 13.49 C1.64 12.37, 2.15 11.28, 2.75 10.25 C3.34 9.22, 4.03 8.23, 4.8 7.32 C5.56 6.41, 6.41 5.56, 7.32 4.8 C8.23 4.03, 9.22 3.34, 10.25 2.75 C11.28 2.15, 12.37 1.64, 13.49 1.24 C14.6 0.83, 15.77 0.52, 16.94 0.31 C18.11 0.11, 19.31 0, 20.5 0 C21.69 0, 22.89 0.11, 24.06 0.31 C25.23 0.52, 26.4 0.83, 27.51 1.24 C28.63 1.64, 29.72 2.15, 30.75 2.75 C31.78 3.34, 32.77 4.03, 33.68 4.8 C34.59 5.56, 35.44 6.41, 36.2 7.32 C36.97 8.23, 37.66 9.22, 38.25 10.25 C38.85 11.28, 39.36 12.37, 39.76 13.49 C40.17 14.6, 40.48 15.77, 40.69 16.94 C40.89 18.11, 40.95 19.91, 41 20.5 C41.05 21.09, 41.05 19.91, 41 20.5" stroke="#1971c2" stroke-width="4" fill="none"></path></g><g transform="translate(666.435938351902 141.06368598567582) rotate(0 4.449999809265137 9.199999999999989)"><text x="4.449999809265137" y="0" font-family="Helvetica, Segoe UI Emoji" font-size="16px" fill="#1971c2" text-anchor="middle" style="white-space: pre;" direction="ltr" dominant-baseline="text-before-edge">6</text></g></svg>